<svg width="24" height="25" viewBox="0 0 24 25" fill="none" xmlns="http://www.w3.org/2000/svg">
<path d="M5.536 22.386C5.69777 22.4702 5.87939 22.5087 6.06138 22.4974C6.24337 22.4861 6.41886 22.4255 6.569 22.322L19.569 13.322C19.7018 13.23 19.8104 13.1071 19.8854 12.964C19.9603 12.8208 19.9995 12.6616 19.9995 12.5C19.9995 12.3384 19.9603 12.1792 19.8854 12.0361C19.8104 11.8929 19.7018 11.7701 19.569 11.678L6.569 2.67803C6.41897 2.57422 6.24341 2.51343 6.06131 2.50225C5.87922 2.49106 5.69753 2.5299 5.53593 2.61457C5.37433 2.69923 5.23896 2.82649 5.1445 2.98257C5.05003 3.13865 5.00006 3.31759 5 3.50003V21.5C4.99997 21.6826 5.0499 21.8616 5.14439 22.0178C5.23887 22.174 5.3743 22.3013 5.536 22.386Z" fill="#ffff"/>
</svg>
