<svg width="24" height="24" viewBox="0 0 24 24" fill="none" xmlns="http://www.w3.org/2000/svg">
<path d="M2.59994 13.0831L6.05194 14.5941L15.9999 9.16715L9.99994 16.1671L18.5999 20.0831C18.747 20.1476 18.9074 20.1756 19.0676 20.1649C19.2279 20.1543 19.3831 20.1051 19.5204 20.0218C19.6576 19.9384 19.7727 19.8232 19.856 19.6859C19.9393 19.5487 19.9883 19.3934 19.9989 19.2331L20.9989 4.23315C21.0101 4.05953 20.9758 3.88601 20.8995 3.72965C20.8233 3.57329 20.7076 3.43949 20.5639 3.34141C20.4202 3.24333 20.2534 3.18435 20.08 3.17028C19.9066 3.1562 19.7326 3.18752 19.5749 3.26115L2.57494 11.2611C2.40152 11.3434 2.25539 11.4738 2.15392 11.6367C2.05245 11.7996 1.9999 11.9883 2.00254 12.1802C2.00517 12.3721 2.06287 12.5592 2.16877 12.7193C2.27468 12.8794 2.42433 13.0057 2.59994 13.0831ZM7.99994 22.1671L12.7759 19.8511L7.99994 17.6231V22.1671Z" fill="white"/>
</svg>
