<svg width="206" height="26" viewBox="0 0 206 26" fill="none" xmlns="http://www.w3.org/2000/svg">
<path d="M49.15 12.09L49.12 11.56L49.05 11.03L49.01 11.56L48.95 12.1L48.86 12.64L48.74 13.17L48.59 13.69L48.41 14.2L48.21 14.7L47.98 15.18L47.74 15.67L47.45 16.13L47.15 16.58L46.83 17.01L46.47 17.43L46.1 17.82L45.71 18.19L45.3 18.55L44.66 19.04L44.01 19.51L43.34 19.96L42.64 20.39L41.94 20.79L41.22 21.16L40.5 21.51L39.75 21.83L39 22.12L38.24 22.39L37.47 22.63L36.69 22.84L35.91 23.03L34.79 23.25L33.67 23.44L32.55 23.61L31.41 23.74L30.28 23.84L29.15 23.91L28.01 23.96H26.87H25.73L24.59 23.91L23.46 23.83L22.32 23.72L21.2 23.58L20.08 23.42L18.96 23.21L17.85 22.98L16.74 22.72L15.64 22.43L14.54 22.11L13.46 21.76L12.82 21.53L12.2 21.3L11.6 21.05L11.02 20.8L10.45 20.53L9.91 20.24L9.39 19.95L8.9 19.65L8.41 19.34L7.96 19.02L7.53 18.69L7.13 18.36L6.75 18.01L6.4 17.66L6.08 17.3L5.78 16.95L5.52 16.58L5.29 16.21L5.08 15.83L4.9 15.45L4.75 15.06L4.63 14.67L4.54 14.28L4.48 13.89L4.45 13.51V13.12L4.48 12.73L4.54 12.34L4.63 11.95L4.75 11.56L4.9 11.17L5.07 10.79L5.28 10.41L5.52 10.04L5.78 9.66999L6.08 9.29998L6.39 8.94999L6.74 8.59999L7.11 8.25999L7.52 7.91999L7.95 7.58998L8.4 7.27999L8.87 6.96999L9.37 6.65998L9.89 6.36999L10.43 6.07999L11 5.81998L11.58 5.55999L12.18 5.31998L12.8 5.07999L13.44 4.85999L14.1 4.63998L15.26 4.29998L16.43 3.99998L17.61 3.71999L18.79 3.46999L19.98 3.25999L21.18 3.06998L22.38 2.91999L23.58 2.78999V4.83998L22.85 4.86999L22.13 4.89999L21.41 4.94999L20.69 4.99998L19.99 5.06998L19.29 5.13998L18.6 5.22998L17.92 5.32999L17.26 5.42999L16.61 5.53999L15.84 5.68999L15.07 5.87999L14.31 6.09999L13.57 6.35999L12.98 6.58998L12.4 6.85999L11.83 7.14999L11.28 7.45998L10.74 7.80999L10.22 8.16999L9.71 8.55999L9.23 8.98999L8.76 9.41999L8.33 9.87999L7.9 10.37L7.57 10.82L7.26 11.29L6.98 11.77L6.72 12.27L6.48 12.77L6.27 13.28L6.52 12.9L6.79 12.53L7.09 12.19L7.42 11.86L7.76 11.56L8.13 11.29L8.51 11.04L8.92 10.82L9.33 10.63L9.47 10.88L9.58 11.14L9.67 11.41L9.72 11.69L9.75 11.98L10.07 11.51L10.43 11.05L10.82 10.61L11.22 10.2L11.64 9.80999L12.09 9.43999L12.55 9.09999L13.04 8.77999L13.53 8.47998L14.04 8.21999L14.57 7.98999L15.11 7.76999L15.66 7.59999L16.21 7.43999L16.76 7.30999L17.31 7.18999L17.89 7.08998L18.48 6.97998L19.08 6.88998L19.7 6.80999L20.32 6.73999L20.96 6.67999L21.6 6.62999L22.26 6.57999L22.92 6.54998L23.59 6.51999V15.49L22.95 15.46L22.32 15.43L21.7 15.39L21.08 15.34L20.47 15.28L19.86 15.21L19.27 15.13L18.69 15.05L18.13 14.96L17.57 14.85L17.03 14.74L17.25 14.88L17.47 15.03L17.66 15.21L17.83 15.4L17.19 15.52L16.54 15.6L15.9 15.65L16.84 15.92L17.8 16.16L18.75 16.39L19.71 16.58L20.68 16.75L21.65 16.88L22.63 16.99L23.61 17.07V17.16L23.59 17.67L23.56 18.19L23.49 18.71L23.39 19.22L23.26 19.73L23.11 20.22L22.93 20.71L22.72 21.19L22.48 21.66L23.03 21.29L23.59 20.92L24.16 20.59L24.74 20.28L25.15 20.45L25.55 20.65L25.94 20.87L26.31 21.11L26.66 21.37L26.99 21.66L26.76 21.19L26.55 20.71L26.37 20.22L26.21 19.73L26.08 19.22L25.98 18.71L25.91 18.19L25.86 17.67V17.16L26.56 17.13L27.28 17.1L27.98 17.05L28.69 17L29.38 16.93L30.07 16.86L30.75 16.78L31.41 16.69L32.07 16.58L32.72 16.46L33.34 16.34L33.96 16.21L34.56 16.07L35.15 15.92L35.71 15.76L36.26 15.6L36.79 15.42L37.3 15.25L37.78 15.06L38.25 14.87L38.7 14.67L39.11 14.46L39.5 14.25L39.87 14.03L40.21 13.81L40.53 13.58L40.82 13.34L41.08 13.11L41.31 12.86L41.51 12.61L41.69 12.36L41.84 12.11L41.96 11.86L42.05 11.61L42.11 11.35L42.14 11.1V10.84L42.11 10.59L42.05 10.34L41.96 10.08L41.84 9.82999L41.69 9.58998L41.51 9.33998L41.31 9.08998L41.08 8.83998L40.82 8.60999L40.53 8.37999L40.21 8.14999L39.87 7.91999L39.5 7.70998L39.11 7.49998L38.7 7.28999L38.25 7.07999L37.78 6.88998L37.3 6.70998L36.79 6.51999L36.26 6.34999L35.71 6.18999L35.15 6.01999L34.56 5.86999L33.96 5.72998L33.34 5.59999L32.72 5.46999L32.07 5.35999L31.41 5.25999L30.75 5.15998L30.07 5.07999L29.38 5.00999L28.69 4.94999L27.98 4.88998L27.28 4.84999L26.56 4.81998L25.84 4.78999V2.59999L27.02 2.56998H28.2L29.38 2.59999L30.56 2.64999L31.74 2.73999L32.92 2.86999L34.09 3.01999L35.25 3.19999L36.41 3.40998L37.57 3.64999L38.72 3.91999L39.86 4.20998L40.99 4.52999L42.11 4.88998L43.23 5.27999L44.34 5.68999L43.8 5.34999L43.25 5.01999L42.67 4.70998L42.07 4.39999L41.45 4.10999L40.81 3.81998L40.15 3.54998L39.47 3.28999L38.77 3.04998L38.06 2.80999L37.33 2.57999L36.59 2.36999L35.83 2.16999L35.06 1.97998L34.28 1.80999L33.49 1.64999L32.69 1.50999L31.87 1.37999L31.05 1.25999L30.21 1.15998L29.37 1.06998L28.53 0.999985L27.69 0.939987L26.83 0.899986L25.98 0.869987H25.13L24.27 0.859985H23.41L22.56 0.909985L21.71 0.949986L20.86 1.00999L20.02 1.07999L19.18 1.16999L18.35 1.26999L17.53 1.38998L16.71 1.51999L15.91 1.65998L15.12 1.82999L14.34 1.99998L13.57 2.18999L12.81 2.38998L12.07 2.60999L11.35 2.82999L10.64 3.07999L9.94 3.31998L9.26 3.58998L8.6 3.85999L7.96 4.13998L7.34 4.43999L6.74 4.73999L6.17 5.05999L5.62 5.38998L5.09 5.71999L4.58 6.06998L4.1 6.41999L3.63 6.76999L3.2 7.13998L2.79 7.51999L2.4 7.90998L2.04 8.29998L1.71 8.69999L1.42 9.09999L1.14 9.50999L0.900002 9.91999L0.68 10.34L0.490002 10.75L0.330002 11.18L0.200001 11.6L0.110001 12.03L0.0300026 12.45L0 12.88V13.31V13.74L0.0500031 14.17L0.120003 14.6L0.230003 15.03L0.360001 15.46L0.52 15.87L0.720001 16.3L0.950001 16.71L1.2 17.12L1.48 17.52L1.79 17.92L2.12 18.33L2.49 18.71L2.88 19.1L3.29 19.47L3.74 19.84L4.2 20.19L4.7 20.55L5.21 20.89L5.75 21.22L6.31 21.54L6.89 21.85L7.49 22.15L8.11 22.45L8.75 22.73L9.41 23L10.09 23.26L10.79 23.51L11.51 23.75L12.24 23.97L12.99 24.18L13.74 24.38L14.52 24.57L15.3 24.74L16.09 24.89L16.91 25.03L17.72 25.16L18.54 25.28L19.38 25.37L20.21 25.46L21.05 25.53L21.9 25.59L22.75 25.63L23.61 25.66H24.47H25.32H26.18L27.03 25.61L27.88 25.56L28.73 25.51L29.57 25.43L30.41 25.34L31.23 25.23L32.05 25.12L32.86 24.98L33.66 24.83L34.45 24.67L35.23 24.5L36 24.31L36.75 24.11L37.49 23.9L38.21 23.67L38.91 23.44L39.61 23.19L40.28 22.92L40.94 22.65L41.58 22.36L42.2 22.07L42.79 21.76L43.37 21.44L43.92 21.11L44.45 20.77L44.95 20.42L45.43 20.06L45.84 19.73L46.25 19.36L46.62 18.98L46.97 18.57L47.3 18.15L47.61 17.7L47.89 17.24L48.14 16.77L48.37 16.29L48.57 15.79L48.74 15.28L48.88 14.76L48.99 14.23L49.08 13.7L49.13 13.17L49.15 12.64V12.09ZM25.84 6.53999L26.48 6.55999L27.12 6.58998L27.75 6.62999L28.37 6.67999L28.99 6.73999L29.6 6.80999L30.2 6.88998L30.79 6.96999L31.36 7.05999L31.92 7.16999L32.47 7.27999L33 7.38998L33.51 7.51999L34 7.64999L34.47 7.78999L34.93 7.93999L35.36 8.08998L35.77 8.23999L36.16 8.40998L36.53 8.57999L36.86 8.74998L37.17 8.92999L37.46 9.11999L37.72 9.30999L37.95 9.49998L38.16 9.68999L38.33 9.88998L38.48 10.09L38.59 10.3L38.68 10.5L38.74 10.71L38.77 10.92V11.13L38.74 11.34L38.68 11.54L38.59 11.75L38.48 11.95L38.33 12.16L38.16 12.35L37.95 12.55L37.72 12.74L37.46 12.93L37.17 13.12L36.86 13.31L36.53 13.48L36.16 13.65L35.77 13.82L35.36 13.98L34.93 14.13L34.47 14.28L34 14.42L33.51 14.55L33 14.68L32.47 14.79L31.92 14.9L31.36 15L30.79 15.09L30.2 15.18L29.6 15.26L28.99 15.33L28.37 15.39L27.75 15.43L27.12 15.48L26.48 15.51L25.84 15.54V6.56998V6.53999Z" fill="white"/>
<path d="M200.23 20.01V7.59001C200.23 7.02001 199.91 6.73001 199.25 6.73001H198V5.76001H205.79V6.73001H204.37C203.79 6.73001 203.5 6.97001 203.5 7.45001V19.46C203.5 20.01 203.84 20.29 204.53 20.29H205.8V21.26H180.7V20.29H181.92C182.68 20.29 183.06 20.01 183.06 19.46V7.59001C183.06 7.02001 182.74 6.73001 182.08 6.73001H180.7V5.76001H188.57V6.73001H187.2C186.61 6.73001 186.32 6.97001 186.32 7.45001V20.01H191.64V7.59001C191.64 7.02001 191.32 6.73001 190.67 6.73001H189.75V5.76001H196.79V6.73001H195.77C195.19 6.73001 194.9 6.97001 194.9 7.45001V20.01H200.24H200.23Z" fill="white"/>
<path d="M179.13 20.29C178.8 20.29 178.54 20.22 178.34 20.08C178.14 19.94 177.96 19.68 177.79 19.28L172 5.37H170.84L165.25 18.64C165.03 19.17 164.72 19.6 164.31 19.93C164.03 20.17 163.69 20.29 163.32 20.29H162.99V21.26H168.87V20.29H168.38C167.8 20.29 167.34 20.15 167 19.86C166.67 19.58 166.5 19.21 166.5 18.75C166.5 18.49 166.61 18.08 166.84 17.54L167.39 16.23H173.2L174.39 19.1C174.48 19.3 174.52 19.48 174.52 19.63C174.52 19.83 174.42 19.98 174.22 20.11C174.01 20.22 173.65 20.29 173.11 20.29H172.43V21.26H179.7V20.29H179.13ZM167.83 15.2L170.31 9.29999L172.77 15.2H167.82H167.83Z" fill="white"/>
<path d="M142.89 5.76001H149.13L152.64 16.26L156.18 5.76001H162.57V6.73001H161.18C160.84 6.73001 160.6 6.79001 160.47 6.92001C160.34 7.05001 160.28 7.26001 160.28 7.57001V19.42C160.28 19.72 160.35 19.92 160.49 20.04C160.7 20.21 160.98 20.29 161.34 20.29H162.57V21.26H154.7V20.29H156.18C156.45 20.29 156.66 20.21 156.8 20.06C156.94 19.91 157.01 19.69 157.01 19.42V6.74001L152.05 21.26H151.13L146.23 6.62001V17.95C146.23 18.6 146.43 19.13 146.85 19.55C147.26 19.97 147.86 20.22 148.64 20.3V21.27H142.89V20.3C143.62 20.24 144.18 19.98 144.58 19.53C144.98 19.08 145.18 18.51 145.18 17.82V7.79001C145.18 7.36001 145.11 7.08001 144.96 6.94001C144.81 6.80001 144.53 6.73001 144.11 6.73001H142.88V5.76001H142.89Z" fill="white"/>
<path d="M129.78 17.26L130.03 16.63L135.83 8.1V7.73C135.83 7.3 135.74 7.03 135.57 6.91C135.39 6.78 135.14 6.72 134.81 6.72H133.88V5.75H141.09V6.72H140.14C139.47 6.72 139.14 7.01 139.14 7.58V19.3C139.14 19.96 139.44 20.29 140.03 20.29H141.1V21.26H133.89V20.29H135.02C135.57 20.29 135.85 20 135.85 19.42V9.93L135.62 10.5L129.8 18.98V19.42C129.8 20 130.03 20.29 130.5 20.29H131.75V21.26H124.54V20.29H125.73C126.24 20.29 126.49 20 126.49 19.42V7.73C126.49 7.07 126.15 6.73 125.48 6.73H124.54V5.76H131.75V6.73H130.67C130.09 6.73 129.79 6.97 129.79 7.46V17.26H129.78Z" fill="white"/>
<path d="M133.02 4.84C131.47 4.84 130.28 4.58 129.44 4.06C128.61 3.54 128.19 2.78 128.19 1.79C128.19 1.29 128.33 0.86 128.6 0.52C128.87 0.18 129.27 0.0100021 129.8 0.0100021C130.27 0.0100021 130.62 0.139999 130.87 0.389999C131.12 0.639999 131.24 0.98 131.24 1.41C131.24 1.96 130.99 2.38 130.49 2.66C130.22 2.81 130.09 2.95 130.09 3.08C130.09 3.28 130.33 3.47 130.82 3.67C131.3 3.87 132.1 3.96 133.2 3.96C133.97 3.96 134.55 3.87 134.96 3.68C135.36 3.49 135.56 3.31 135.56 3.14C135.56 3.01 135.46 2.89 135.27 2.78C134.96 2.6 134.74 2.42 134.61 2.23C134.48 2.04 134.41 1.78 134.41 1.45C134.41 1.06 134.52 0.730002 134.75 0.440002C134.97 0.150002 135.34 0 135.86 0C136.38 0 136.79 0.180003 137.06 0.530003C137.33 0.880003 137.47 1.33 137.47 1.87C137.47 2.77 137.09 3.48 136.34 4.02C135.59 4.56 134.49 4.83 133.05 4.83" fill="white"/>
<path d="M121.28 9.30999C120.59 8.09999 119.63 7.13999 118.4 6.42999C117.17 5.72999 115.82 5.37 114.37 5.37C112.15 5.37 110.29 6.13999 108.8 7.65999C107.3 9.18999 106.55 11.13 106.55 13.48C106.55 15.07 106.89 16.46 107.58 17.65C108.26 18.85 109.19 19.8 110.38 20.5C111.57 21.2 112.91 21.56 114.4 21.56C116.65 21.56 118.53 20.79 120.05 19.24C121.57 17.69 122.32 15.76 122.32 13.43C122.32 11.9 121.98 10.53 121.29 9.30999M117.43 18.92C116.68 19.98 115.68 20.52 114.43 20.52C113.58 20.52 112.85 20.29 112.21 19.83C111.57 19.37 111.09 18.66 110.75 17.7C110.42 16.74 110.25 15.33 110.25 13.46C110.25 11.69 110.43 10.29 110.79 9.27999C111.15 8.25999 111.64 7.51999 112.24 7.06999C112.86 6.61999 113.58 6.37999 114.41 6.37999C115.24 6.37999 115.99 6.61999 116.62 7.06999C117.26 7.51999 117.73 8.21999 118.06 9.14999C118.38 10.09 118.54 11.48 118.54 13.33C118.54 15.99 118.16 17.85 117.41 18.92" fill="white"/>
<path d="M103.34 6.99001C102.4 6.17001 101.17 5.76001 99.6301 5.76001H90.5601V6.73001H92.0401C92.2701 6.73001 92.4701 6.80001 92.6301 6.96001C92.7901 7.12001 92.8701 7.32001 92.8701 7.59001V19.41C92.8701 19.69 92.7901 19.9 92.6401 20.06C92.4801 20.22 92.2501 20.3 91.9401 20.3H90.5601V21.27H98.8201V20.3H97.0501C96.7901 20.3 96.5901 20.22 96.4301 20.06C96.2701 19.9 96.2001 19.69 96.2001 19.41V14.36H99.0701C99.9601 14.36 100.87 14.2 101.77 13.9C102.69 13.59 103.41 13.1 103.95 12.42C104.49 11.74 104.77 10.95 104.77 10.04C104.77 8.85001 104.3 7.84001 103.36 7.01001M100.98 11.91C100.76 12.32 100.39 12.66 99.8701 12.95C99.3501 13.23 98.7601 13.38 98.0901 13.38H96.1801V7.49001C96.1801 7.21001 96.2701 7.01001 96.4501 6.90001C96.6401 6.79001 97.0701 6.73001 97.7601 6.73001C98.9501 6.73001 99.7901 6.91001 100.29 7.28001C100.97 7.79001 101.31 8.68001 101.31 9.93001C101.31 10.84 101.2 11.51 100.98 11.91Z" fill="white"/>
<path d="M74.81 5.75999H88.35L88.69 11.64H87.75C87.53 10.38 87.24 9.38999 86.88 8.67999C86.52 7.96999 86.11 7.46999 85.66 7.16999C85.2 6.86999 84.7 6.71999 84.16 6.71999C83.85 6.71999 83.62 6.77999 83.47 6.90999C83.32 7.03999 83.25 7.22999 83.25 7.46999V19.49C83.25 19.72 83.32 19.91 83.46 20.05C83.6 20.2 83.77 20.27 83.98 20.27H85.74V21.24H77.46V20.27H79.13C79.38 20.27 79.58 20.2 79.73 20.05C79.88 19.91 79.95 19.71 79.95 19.48V7.52999C79.95 7.24999 79.88 7.03999 79.73 6.90999C79.58 6.77999 79.34 6.70999 79.02 6.70999C77.24 6.70999 76.03 8.34999 75.4 11.62H74.48L74.82 5.73999L74.81 5.75999Z" fill="white"/>
<path d="M70.32 6.93002L71.05 5.39001H71.82L72.08 11.61H71.11C70.81 9.81002 70.24 8.48002 69.41 7.62002C68.58 6.75002 67.62 6.31002 66.56 6.31002C65.38 6.31002 64.41 6.87002 63.64 7.99002C62.87 9.11002 62.48 10.87 62.48 13.28C62.48 15.83 62.9 17.72 63.75 18.96C64.43 19.93 65.43 20.41 66.75 20.41C68.07 20.41 69.18 19.92 70.09 18.96C70.74 18.26 71.19 17.22 71.45 15.85H72.39C72.17 17.62 71.49 19.01 70.37 20.04C69.25 21.07 67.86 21.58 66.22 21.58C64.1 21.58 62.32 20.83 60.88 19.34C59.45 17.84 58.73 15.92 58.73 13.59C58.73 10.99 59.56 8.92002 61.22 7.37002C62.63 6.05002 64.28 5.39001 66.18 5.39001C66.93 5.39001 67.62 5.51002 68.26 5.74002C68.9 5.98002 69.59 6.38002 70.32 6.95002" fill="white"/>
</svg>
