<svg width="370" height="349" viewBox="0 0 370 349" fill="none" xmlns="http://www.w3.org/2000/svg">
<path d="M91.3741 138.997C91.3741 62.4149 153.869 0 230.686 0C307.504 0 369.999 62.3948 369.999 139.057C370.26 195.082 335.326 247.67 299.73 286.614C281.992 306.006 264.234 321.861 250.895 332.853C244.226 338.359 238.682 342.639 234.805 345.532C233.077 346.818 231.691 347.843 230.666 348.567C222.31 342.619 190.671 319.349 159.614 285.147C124.721 246.706 91.1129 195.041 91.3741 138.956V138.997Z" fill="url(#paint0_linear_81_496)"/>
<path d="M0.00124126 244.121C0.00124126 205.954 31.1221 174.847 69.3754 174.847C107.629 174.847 138.75 205.944 138.75 244.151C138.88 272.073 121.484 298.282 103.757 317.691C94.9243 327.355 86.0813 335.257 79.4389 340.735C76.1178 343.479 73.3568 345.612 71.4261 347.054C70.5658 347.695 69.8756 348.206 69.3654 348.567C65.204 345.602 49.4485 334.005 33.9831 316.96C16.607 297.801 -0.128804 272.053 0.00124126 244.101V244.121Z" fill="url(#paint1_linear_81_496)"/>
<path d="M281.983 116.415H249.933V155.219H166.606V174.622H173.008C173.008 179.76 175.027 184.696 178.642 188.343C182.257 191.989 187.145 194.024 192.234 194.024C197.323 194.024 202.231 191.989 205.826 188.343C209.441 184.696 211.46 179.76 211.46 174.622H249.913C249.913 179.76 251.932 184.696 255.547 188.343C259.162 191.989 264.05 194.024 269.139 194.024C274.228 194.024 279.136 191.989 282.731 188.343C286.346 184.696 288.365 179.76 288.365 174.622H301.19V142.285L281.963 116.415H281.983ZM192.254 184.333C189.71 184.333 187.266 183.306 185.448 181.492C183.651 179.679 182.641 177.201 182.641 174.622C182.641 172.043 183.651 169.585 185.448 167.751C187.246 165.938 189.689 164.911 192.254 164.911C194.819 164.911 197.243 165.938 199.06 167.751C200.858 169.565 201.867 172.043 201.867 174.622C201.867 177.201 200.858 179.659 199.06 181.492C197.263 183.306 194.819 184.333 192.254 184.333ZM269.159 184.333C266.615 184.333 264.171 183.306 262.353 181.492C260.556 179.679 259.546 177.201 259.546 174.622C259.546 172.043 260.556 169.585 262.353 167.751C264.151 165.938 266.594 164.911 269.159 164.911C271.724 164.911 274.148 165.938 275.965 167.751C277.763 169.565 278.772 172.043 278.772 174.622C278.772 177.201 277.763 179.659 275.965 181.492C274.168 183.306 271.724 184.333 269.159 184.333ZM262.757 142.305V126.126H278.772L291.334 142.305H262.737H262.757ZM269.159 109.947H243.511V148.752H173.008L163.839 116.415H160.184V103.48H237.109L243.511 97.0122H269.159V109.947Z" fill="url(#paint2_linear_81_496)"/>
<path d="M69.3893 252.43C66.6411 252.43 64.0137 251.33 62.0658 249.359C60.1179 247.389 59.0307 244.731 59.0307 241.951C59.0307 239.171 60.1179 236.513 62.0658 234.543C63.9986 232.572 66.6411 231.472 69.3893 231.472C72.1375 231.472 74.7649 232.572 76.7128 234.543C78.6607 236.498 79.748 239.171 79.748 241.951C79.748 244.731 78.6607 247.389 76.7128 249.359C74.7649 251.33 72.1375 252.43 69.3893 252.43ZM91.3599 244.869C91.4807 243.906 91.5713 242.959 91.5713 241.966C91.5713 240.973 91.4807 239.996 91.3599 238.972L97.5962 234.1C98.1549 233.657 98.3059 232.847 97.9435 232.19L92.0243 221.849C91.677 221.192 90.8767 220.917 90.2274 221.192L82.8586 224.186C81.3184 223.025 79.7178 222.002 77.8604 221.253L76.7732 213.326C76.6524 212.608 76.0333 212.073 75.2934 212.073H63.4701C62.7302 212.073 62.1111 212.608 61.9903 213.326L60.9031 221.253C59.0457 222.002 57.4451 223.025 55.9049 224.186L48.5361 221.192C47.8868 220.917 47.0865 221.192 46.7392 221.849L40.82 232.19C40.4425 232.847 40.6086 233.657 41.1673 234.1L47.4036 238.972C47.2828 239.996 47.1922 240.973 47.1922 241.966C47.1922 242.959 47.2828 243.906 47.4036 244.869L41.1673 249.833C40.6086 250.276 40.4274 251.085 40.82 251.742L46.7392 262.084C47.0865 262.74 47.8868 262.985 48.5361 262.74L55.9049 259.716C57.4451 260.907 59.0457 261.931 60.9031 262.679L61.9903 270.607C62.1111 271.325 62.7302 271.86 63.4701 271.86H75.2934C76.0333 271.86 76.6524 271.325 76.7732 270.607L77.8604 262.679C79.7178 261.9 81.3184 260.907 82.8586 259.716L90.2274 262.74C90.8767 262.985 91.677 262.74 92.0243 262.084L97.9435 251.742C98.2908 251.085 98.1549 250.276 97.5962 249.833L91.3599 244.869Z" fill="url(#paint3_linear_81_496)"/>
<defs>
<linearGradient id="paint0_linear_81_496" x1="230.686" y1="0" x2="230.686" y2="348.587" gradientUnits="userSpaceOnUse">
<stop stop-color="white"/>
<stop offset="1" stop-color="#3397FF"/>
</linearGradient>
<linearGradient id="paint1_linear_81_496" x1="69.3754" y1="174.847" x2="69.3754" y2="348.577" gradientUnits="userSpaceOnUse">
<stop stop-color="white"/>
<stop offset="1" stop-color="#3397FF"/>
</linearGradient>
<linearGradient id="paint2_linear_81_496" x1="37.7904" y1="-31.0212" x2="261.944" y2="177.567" gradientUnits="userSpaceOnUse">
<stop stop-color="white"/>
<stop offset="1" stop-color="#3397FF"/>
</linearGradient>
<linearGradient id="paint3_linear_81_496" x1="-108.292" y1="106.601" x2="110.549" y2="258.887" gradientUnits="userSpaceOnUse">
<stop stop-color="white"/>
<stop offset="1" stop-color="#3397FF"/>
</linearGradient>
</defs>
</svg>
