<svg width="232" height="211" viewBox="0 0 232 211" fill="none" xmlns="http://www.w3.org/2000/svg">
<path d="M63.5312 84.1374C63.5312 37.8334 101.318 0.0952148 147.764 0.0952148C194.211 0.0952148 231.997 37.8213 231.997 84.1739C232.155 118.048 211.033 149.845 189.51 173.392C178.785 185.117 168.048 194.703 159.983 201.349C155.951 204.679 152.598 207.267 150.254 209.016C149.21 209.794 148.372 210.413 147.752 210.851C142.699 207.254 123.569 193.185 104.791 172.505C83.6937 149.262 63.3733 118.024 63.5312 84.1131V84.1374Z" fill="url(#paint0_linear_122_576)"/>
<path d="M0.000455274 41.9803C0.000455274 18.9032 18.8172 0.0952148 41.9465 0.0952148C65.0758 0.0952148 83.8926 18.8972 83.8926 41.9985C83.9712 58.8809 73.4529 74.7279 62.7351 86.4632C57.3943 92.3067 52.0474 97.0844 48.0313 100.397C46.0232 102.056 44.3538 103.346 43.1864 104.218C42.6663 104.605 42.2489 104.914 41.9405 105.132C39.4243 103.34 29.898 96.3274 20.5471 86.0212C10.0409 74.4372 -0.0781747 58.8688 0.000455274 41.9682V41.9803Z" fill="url(#paint1_linear_122_576)"/>
<path d="M178.782 70.4837H159.403V93.9464H109.021V105.678H112.892C112.892 108.784 114.113 111.769 116.299 113.974C118.484 116.179 121.439 117.409 124.517 117.409C127.594 117.409 130.561 116.179 132.735 113.974C134.92 111.769 136.141 108.784 136.141 105.678H159.391C159.391 108.784 160.612 111.769 162.798 113.974C164.984 116.179 167.939 117.409 171.016 117.409C174.093 117.409 177.06 116.179 179.234 113.974C181.42 111.769 182.641 108.784 182.641 105.678H190.395V86.1255L178.77 70.4837H178.782ZM124.529 111.55C122.99 111.55 121.513 110.928 120.414 109.832C119.327 108.736 118.716 107.237 118.716 105.678C118.716 104.119 119.327 102.632 120.414 101.524C121.5 100.427 122.978 99.8061 124.529 99.8061C126.08 99.8061 127.545 100.427 128.644 101.524C129.731 102.62 130.341 104.119 130.341 105.678C130.341 107.237 129.731 108.723 128.644 109.832C127.557 110.928 126.08 111.55 124.529 111.55ZM171.028 111.55C169.49 111.55 168.012 110.928 166.913 109.832C165.826 108.736 165.216 107.237 165.216 105.678C165.216 104.119 165.826 102.632 166.913 101.524C168 100.427 169.477 99.8061 171.028 99.8061C172.579 99.8061 174.044 100.427 175.143 101.524C176.23 102.62 176.841 104.119 176.841 105.678C176.841 107.237 176.23 108.723 175.143 109.832C174.057 110.928 172.579 111.55 171.028 111.55ZM167.157 86.1377V76.3555H176.841L184.436 86.1377H167.145H167.157ZM171.028 66.5732H155.52V90.036H112.892L107.348 70.4837H105.138V62.6628H151.649L155.52 58.7523H171.028V66.5732Z" fill="url(#paint2_linear_122_576)"/>
<path d="M41.9548 47.0042C40.2931 47.0042 38.7045 46.3392 37.5267 45.1478C36.3489 43.9564 35.6916 42.3493 35.6916 40.6684C35.6916 38.9875 36.3489 37.3805 37.5267 36.1891C38.6953 34.9976 40.2931 34.3327 41.9548 34.3327C43.6164 34.3327 45.205 34.9976 46.3828 36.1891C47.5606 37.3712 48.218 38.9875 48.218 40.6684C48.218 42.3493 47.5606 43.9564 46.3828 45.1478C45.205 46.3392 43.6164 47.0042 41.9548 47.0042ZM55.2389 42.4325C55.312 41.8506 55.3668 41.278 55.3668 40.6777C55.3668 40.0773 55.312 39.4862 55.2389 38.8674L59.0096 35.9212C59.3475 35.6534 59.4388 35.1639 59.2196 34.7667L55.6407 28.5141C55.4307 28.1169 54.9468 27.9507 54.5542 28.1169L50.0987 29.9271C49.1675 29.2252 48.1997 28.6064 47.0767 28.1539L46.4193 23.3605C46.3463 22.9264 45.972 22.6031 45.5246 22.6031H38.3758C37.9284 22.6031 37.5541 22.9264 37.481 23.3605L36.8237 28.1539C35.7007 28.6064 34.7329 29.2252 33.8016 29.9271L29.3462 28.1169C28.9536 27.9507 28.4697 28.1169 28.2597 28.5141L24.6807 34.7667C24.4525 35.1639 24.5529 35.6534 24.8907 35.9212L28.6614 38.8674C28.5884 39.4862 28.5336 40.0773 28.5336 40.6777C28.5336 41.278 28.5884 41.8506 28.6614 42.4325L24.8907 45.4341C24.5529 45.7019 24.4434 46.1914 24.6807 46.5886L28.2597 52.8412C28.4697 53.2384 28.9536 53.3862 29.3462 53.2384L33.8016 51.4097C34.7329 52.1301 35.7007 52.7489 36.8237 53.2014L37.481 57.9948C37.5541 58.4289 37.9284 58.7522 38.3758 58.7522H45.5246C45.972 58.7522 46.3463 58.4289 46.4193 57.9948L47.0767 53.2014C48.1997 52.7304 49.1675 52.1301 50.0987 51.4097L54.5542 53.2384C54.9468 53.3862 55.4307 53.2384 55.6407 52.8412L59.2196 46.5886C59.4296 46.1914 59.3475 45.7019 59.0096 45.4341L55.2389 42.4325Z" fill="url(#paint3_linear_122_576)"/>
<defs>
<linearGradient id="paint0_linear_122_576" x1="147.764" y1="0.0952148" x2="147.764" y2="210.863" gradientUnits="userSpaceOnUse">
<stop stop-color="white"/>
<stop offset="1" stop-color="#3397FF"/>
</linearGradient>
<linearGradient id="paint1_linear_122_576" x1="41.9465" y1="0.0952148" x2="41.9465" y2="105.138" gradientUnits="userSpaceOnUse">
<stop stop-color="white"/>
<stop offset="1" stop-color="#3397FF"/>
</linearGradient>
<linearGradient id="paint2_linear_122_576" x1="31.1345" y1="-18.6611" x2="166.665" y2="107.458" gradientUnits="userSpaceOnUse">
<stop stop-color="white"/>
<stop offset="1" stop-color="#3397FF"/>
</linearGradient>
<linearGradient id="paint3_linear_122_576" x1="-65.4778" y1="-41.1692" x2="66.8412" y2="50.9085" gradientUnits="userSpaceOnUse">
<stop stop-color="white"/>
<stop offset="1" stop-color="#3397FF"/>
</linearGradient>
</defs>
</svg>
