<svg width="172" height="30" viewBox="0 0 172 30" fill="none" xmlns="http://www.w3.org/2000/svg">
<path d="M119 6.85329V0.200928H120.48V2.75953V3.984V6.85329H119ZM123.423 6.85329L121.211 3.32607L123.258 0.200928H124.83L122.801 3.25297L125.177 6.85329H123.423Z" fill="#3397FF"/>
<path d="M129.399 7.05443C128.705 7.05443 128.083 6.88995 127.535 6.57926C126.987 6.26858 126.566 5.82996 126.256 5.29996C125.945 4.76997 125.799 4.18514 125.799 3.52721C125.799 3.05205 125.89 2.59515 126.073 2.17481C126.256 1.75447 126.493 1.37068 126.822 1.04171C127.151 0.71275 127.535 0.456893 127.974 0.274136C128.412 0.0913787 128.887 0 129.417 0C130.112 0 130.733 0.164483 131.282 0.47517C131.83 0.804133 132.25 1.22448 132.561 1.75447C132.872 2.28447 133.018 2.86929 133.018 3.52721C133.018 4.00238 132.926 4.441 132.744 4.87962C132.561 5.29996 132.323 5.68375 131.994 6.01272C131.665 6.34168 131.3 6.59754 130.843 6.7803C130.404 6.96306 129.929 7.05443 129.399 7.05443ZM129.399 5.73858C129.819 5.73858 130.185 5.6472 130.496 5.46444C130.806 5.28169 131.062 5.02582 131.245 4.69686C131.428 4.3679 131.519 3.96583 131.519 3.52721C131.519 3.0886 131.428 2.68653 131.245 2.33929C131.062 2.01033 130.806 1.75447 130.496 1.57171C130.185 1.38896 129.801 1.29758 129.399 1.29758C128.979 1.29758 128.613 1.38896 128.303 1.57171C127.974 1.75447 127.736 2.01033 127.553 2.33929C127.371 2.66825 127.279 3.07032 127.279 3.52721C127.279 3.98411 127.371 4.3679 127.553 4.69686C127.736 5.02582 127.992 5.28169 128.303 5.46444C128.632 5.6472 128.997 5.73858 129.399 5.73858Z" fill="#3397FF"/>
<path d="M134.498 6.85329V0.200928H135.978V2.75953H139.305V0.200928H140.785V6.85329H139.305V3.984H135.978V6.85329H134.498Z" fill="#3397FF"/>
<path d="M142.85 6.85329V0.200928H144.33V2.75953H147.656V0.200928H149.136V6.85329H147.656V3.984H144.33V6.85329H142.85Z" fill="#3397FF"/>
<path d="M154.236 7.05447C153.523 7.05447 152.883 6.90826 152.353 6.61585C151.823 6.32343 151.385 5.9031 151.092 5.39138C150.781 4.86138 150.635 4.24 150.635 3.54553C150.635 3.0338 150.727 2.55863 150.891 2.13829C151.074 1.69967 151.311 1.33416 151.622 1.0052C151.933 0.694512 152.317 0.438651 152.737 0.27417C153.157 0.0914124 153.632 0.0183105 154.144 0.0183105C154.692 0.0183105 155.186 0.109685 155.625 0.310718C156.063 0.511751 156.41 0.785887 156.703 1.13313C156.995 1.48036 157.196 1.90071 157.306 2.3576C157.416 2.83277 157.452 3.32621 157.361 3.87449H152.042C152.042 4.27655 152.116 4.62379 152.298 4.91621C152.481 5.20862 152.737 5.4462 153.084 5.61068C153.431 5.77516 153.834 5.86655 154.29 5.86655C154.674 5.86655 155.04 5.81171 155.387 5.70206C155.734 5.59241 156.063 5.40965 156.337 5.19034L156.904 6.25033C156.685 6.43309 156.429 6.5793 156.118 6.68895C155.807 6.81688 155.497 6.90826 155.168 6.96309C154.875 7.01792 154.546 7.05447 154.236 7.05447ZM152.134 2.75967H155.899C155.88 2.26623 155.716 1.86416 155.423 1.57175C155.131 1.27934 154.674 1.13313 154.108 1.13313C153.559 1.13313 153.102 1.27934 152.755 1.57175C152.408 1.86416 152.189 2.26623 152.134 2.75967Z" fill="#3397FF"/>
<path d="M158.896 6.85329V0.200928H160.376V2.75953V3.984V6.85329H158.896ZM163.319 6.85329L161.107 3.32607L163.154 0.200928H164.726L162.716 3.25297L165.091 6.85329H163.319Z" fill="#3397FF"/>
<path d="M167.887 6.85329V1.4254H165.694V0.200928H171.543V1.4254H169.349V6.85329H167.887Z" fill="#3397FF"/>
<path d="M16.2304 21.263C15.8734 22.0213 15.4384 22.6971 14.9266 23.2915C14.4136 23.8859 13.8344 24.3883 13.1877 24.7966C12.541 25.206 11.8349 25.5177 11.0696 25.7329C10.3042 25.9481 9.4982 26.0563 8.65027 26.0563C7.44642 26.0563 6.31701 25.8364 5.26088 25.3991C4.20591 24.9606 3.28819 24.3546 2.50773 23.5823C1.72726 22.81 1.11429 21.9027 0.668805 20.8617C0.223323 19.8218 0 18.7064 0 17.5177C0 16.3289 0.218666 15.2135 0.65717 14.1736C1.09567 13.1338 1.69702 12.23 2.46353 11.4647C3.22887 10.6993 4.12798 10.0968 5.16201 9.65834C6.19488 9.21983 7.30568 9 8.49557 9C9.35745 9 10.1821 9.10817 10.9707 9.32335C11.7582 9.53853 12.4828 9.8584 13.1446 10.2818C13.8053 10.7052 14.3962 11.2181 14.9173 11.8206C15.4372 12.4231 15.8687 13.1024 16.2107 13.8608H13.3342C12.7399 13.0431 12.0594 12.4417 11.2941 12.0544C10.5287 11.6682 9.618 11.4752 8.56303 11.4752C7.71627 11.4752 6.92766 11.6275 6.19953 11.9323C5.47141 12.237 4.83982 12.6604 4.30478 13.2036C3.76974 13.7468 3.35333 14.3853 3.05673 15.1216C2.75896 15.8579 2.61125 16.6488 2.61125 17.4967C2.61125 18.3447 2.76711 19.1356 3.07883 19.8719C3.39055 20.6081 3.82207 21.2513 4.37224 21.8003C4.9224 22.3505 5.55748 22.7855 6.27862 23.1042C6.99977 23.4241 7.77559 23.5834 8.6084 23.5834C9.5296 23.5834 10.3508 23.4055 11.0719 23.0484C11.7931 22.6913 12.5177 22.097 13.2458 21.2641H16.2339L16.2304 21.263Z" fill="white"/>
<path d="M20.4456 15.7555H17.4575V13.4595H25.9531V15.7555H22.965V25.7667H20.4456V15.7555Z" fill="white"/>
<path d="M27.5796 13.4595H29.9431V15.1321C30.4339 14.4936 31.0434 14.0062 31.7715 13.6712C32.4997 13.3363 33.3243 13.1699 34.2467 13.1699C35.1691 13.1699 35.967 13.3339 36.7323 13.6608C37.4977 13.9876 38.1595 14.4377 38.7167 15.01C39.2738 15.5823 39.7088 16.2581 40.0205 17.0385C40.3323 17.819 40.4893 18.6704 40.4893 19.5916C40.4893 20.5128 40.3288 21.3677 40.0101 22.1552C39.6902 22.9438 39.2517 23.6265 38.6946 24.207C38.1374 24.7862 37.4756 25.2398 36.7102 25.5667C35.9449 25.8935 35.1156 26.0575 34.2246 26.0575C33.3336 26.0575 32.6195 25.9121 31.9507 25.6225C31.2819 25.3329 30.6642 24.8909 30.1001 24.2954V29.9366H27.5808V13.4595H27.5796ZM35.5517 23.4265C36.0344 23.2183 36.4543 22.9287 36.8114 22.5565C37.1685 22.1854 37.4465 21.7504 37.6477 21.2526C37.8489 20.7548 37.949 20.2162 37.949 19.6358C37.949 19.0554 37.8489 18.4913 37.6477 17.9853C37.4477 17.4805 37.165 17.042 36.801 16.6698C36.4369 16.2988 36.0089 16.0091 35.5192 15.7998C35.0283 15.5916 34.4933 15.4881 33.9141 15.4881C33.3348 15.4881 32.8254 15.5962 32.3426 15.8114C31.8588 16.0266 31.44 16.3209 31.083 16.6919C30.7259 17.0641 30.4479 17.5061 30.2467 18.019C30.0454 18.532 29.9454 19.0787 29.9454 19.6579C29.9454 20.2372 30.0489 20.7769 30.2571 21.2747C30.4653 21.7725 30.7515 22.204 31.1155 22.5681C31.4796 22.9322 31.9076 23.2183 32.3973 23.4265C32.8882 23.6347 33.4151 23.7382 33.9804 23.7382C34.5456 23.7382 35.069 23.6347 35.5529 23.4265H35.5517Z" fill="white"/>
<path d="M42.4627 17.0931C42.7977 16.3057 43.2618 15.6218 43.8562 15.0414C44.4505 14.4621 45.1461 14.005 45.9405 13.67C46.7361 13.335 47.5945 13.1687 48.5157 13.1687C49.4369 13.1687 50.2476 13.3397 51.0351 13.6816C51.8225 14.0236 52.5064 14.4842 53.0869 15.0646C53.6661 15.6439 54.1232 16.3278 54.4582 17.1164C54.7932 17.905 54.9595 18.7436 54.9595 19.6358C54.9595 20.5279 54.792 21.3863 54.4582 22.1667C54.1232 22.9472 53.6661 23.6242 53.0869 24.1953C52.5076 24.7675 51.8237 25.2212 51.0351 25.555C50.2465 25.89 49.4078 26.0563 48.5157 26.0563C47.6236 26.0563 46.735 25.8923 45.9405 25.5654C45.1449 25.2386 44.4505 24.7815 43.8562 24.1941C43.2618 23.6067 42.7966 22.9228 42.4627 22.1423C42.1278 21.3619 41.9614 20.5256 41.9614 19.6334C41.9614 18.7413 42.1289 17.8794 42.4627 17.092V17.0931ZM50.0208 23.4264C50.5035 23.2182 50.9199 22.9286 51.2689 22.5564C51.6178 22.1854 51.8935 21.7538 52.0935 21.263C52.2936 20.7721 52.3948 20.2371 52.3948 19.6579C52.3948 19.0786 52.2947 18.5133 52.0935 18.0074C51.8923 17.5026 51.6143 17.0641 51.2572 16.6919C50.9002 16.3208 50.4768 16.0265 49.9859 15.8114C49.4951 15.5962 48.967 15.488 48.4029 15.488C47.8678 15.488 47.3619 15.5962 46.8862 15.8114C46.4104 16.0265 45.994 16.3243 45.6381 16.7035C45.281 17.0827 45.003 17.5212 44.8018 18.019C44.6006 18.5168 44.5006 19.0553 44.5006 19.6358C44.5006 20.2162 44.6006 20.7547 44.8018 21.2525C45.0019 21.7503 45.2845 22.1854 45.6486 22.5564C46.0126 22.9286 46.436 23.2182 46.9199 23.4264C47.4026 23.6346 47.919 23.7382 48.4692 23.7382C49.0194 23.7382 49.5358 23.6346 50.0185 23.4264H50.0208Z" fill="white"/>
<path d="M56.9443 13.4595H59.4637V22.1993L65.6179 13.4595H68.1814V25.7667H65.6621V17.049L59.5079 25.7667H56.9443V13.4595ZM61.0246 9.13379C61.0246 9.71303 61.1468 10.1376 61.3922 10.4051C61.6376 10.6726 62.0272 10.8064 62.5623 10.8064C63.0973 10.8064 63.487 10.6726 63.7324 10.4051C63.9778 10.1376 64.1 9.7142 64.1 9.13379H66.1518C65.9877 10.1004 65.6051 10.825 65.0037 11.3077C64.4012 11.7904 63.5882 12.0323 62.5623 12.0323C61.5364 12.0323 60.7222 11.7904 60.1209 11.3077C59.5184 10.825 59.1357 10.1004 58.9728 9.13379H61.0246Z" fill="white"/>
<path d="M70.7236 13.4595H73.8455L77.7478 20.9955L81.6502 13.4595H84.7499V25.7667H82.2306V16.8698L78.5516 24.0499H76.9243L73.2453 16.8698V25.7667H70.726V13.4595H70.7236Z" fill="white"/>
<path d="M87.223 17.0606C87.5347 16.265 87.9732 15.5822 88.5385 15.0088C89.1038 14.4365 89.7761 13.9876 90.5565 13.6595C91.337 13.3327 92.1803 13.1687 93.0875 13.1687C94.039 13.1687 94.852 13.3362 95.5289 13.67C96.2047 14.005 96.8189 14.5435 97.369 15.2868V13.4583H99.7325V25.7655H97.369V23.9812C96.7595 24.7245 96.1233 25.256 95.4626 25.5759C94.8008 25.8958 94.0099 26.0551 93.0875 26.0551C92.1651 26.0551 91.3184 25.8958 90.5461 25.5759C89.7726 25.256 89.1038 24.8106 88.5396 24.2383C87.9744 23.666 87.5358 22.9903 87.2241 22.2098C86.9124 21.4293 86.7554 20.5791 86.7554 19.6567C86.7554 18.7343 86.9112 17.855 87.2241 17.0594L87.223 17.0606ZM89.5981 21.2967C89.7982 21.7945 90.0808 22.2261 90.4449 22.5901C90.8089 22.9542 91.2404 23.2368 91.7383 23.4369C92.2361 23.6381 92.7746 23.7382 93.355 23.7382C93.9354 23.7382 94.4658 23.6381 94.9497 23.4369C95.4324 23.2357 95.8523 22.9542 96.2094 22.5901C96.5665 22.2261 96.841 21.7911 97.034 21.2863C97.2271 20.7814 97.3237 20.2313 97.3237 19.6358C97.3237 19.0402 97.2236 18.4877 97.0224 17.9748C96.8223 17.4618 96.5397 17.0233 96.1757 16.6593C95.8116 16.2952 95.38 16.0091 94.8822 15.8009C94.3844 15.5927 93.8377 15.4892 93.2434 15.4892C92.649 15.4892 92.1582 15.5973 91.6824 15.8125C91.2067 16.0277 90.7903 16.322 90.4344 16.693C90.0773 17.0652 89.7993 17.5072 89.5981 18.0202C89.3969 18.5331 89.2968 19.0868 89.2968 19.6811C89.2968 20.2755 89.3969 20.8001 89.5981 21.2979V21.2967Z" fill="white"/>
<path d="M102.273 13.4595H104.792V23.4706H108.917V13.4595H111.436V23.4706H115.538V13.4595H118.08V25.7667H102.271V13.4595H102.273Z" fill="white"/>
</svg>
