<svg width="68" height="68" viewBox="0 0 68 68" fill="none" xmlns="http://www.w3.org/2000/svg">
<g id="interface-help-question-circle--circle-faq-frame-help-info-mark-more-query-question" clip-path="url(#clip0_695_963)">
<g id="Group">
<path id="Union" fill-rule="evenodd" clip-rule="evenodd" d="M8.88118 33.048C8.88118 19.7011 19.701 8.88135 33.0479 8.88135C46.3947 8.88135 57.2145 19.7011 57.2145 33.048C57.2145 46.3949 46.3947 57.2147 33.0479 57.2147C19.701 57.2147 8.88118 46.3949 8.88118 33.048ZM33.0479 3.88135C16.9395 3.88135 3.88118 16.9397 3.88118 33.048C3.88118 49.1563 16.9395 62.2147 33.0479 62.2147C40.2019 62.2147 46.7544 59.639 51.8286 55.3643L63.041 66.5767C64.0173 67.553 65.6003 67.553 66.5766 66.5767C67.5529 65.6004 67.5529 64.0175 66.5766 63.0412L55.3641 51.8288C59.6388 46.7546 62.2145 40.2021 62.2145 33.048C62.2145 16.9397 49.1562 3.88135 33.0479 3.88135Z" fill="#7D9AFF"/>
<path id="Vector" d="M26.8939 26.8938C26.8939 25.6767 27.2548 24.4869 27.931 23.4749C28.6072 22.463 29.5683 21.6742 30.6928 21.2084C31.8172 20.7427 33.0546 20.6208 34.2483 20.8582C35.442 21.0957 36.5385 21.6818 37.3992 22.5424C38.2598 23.403 38.8459 24.4996 39.0833 25.6933C39.3208 26.887 39.1989 28.1243 38.7331 29.2488C38.2674 30.3733 37.4786 31.3344 36.4666 32.0106C35.4546 32.6868 34.2648 33.0477 33.0477 33.0477V37.1503" stroke="#7D9AFF" stroke-width="4" stroke-linecap="round" stroke-linejoin="round"/>
<path id="Ellipse 13" d="M33.0481 47.4072C32.4817 47.4072 32.0225 46.948 32.0225 46.3816C32.0225 45.8152 32.4817 45.356 33.0481 45.356" stroke="#7D9AFF" stroke-width="4" stroke-linecap="round" stroke-linejoin="round"/>
<path id="Ellipse 14" d="M33.0479 47.4072C33.6143 47.4072 34.0735 46.948 34.0735 46.3816C34.0735 45.8152 33.6143 45.356 33.0479 45.356" stroke="#7D9AFF" stroke-width="4" stroke-linecap="round" stroke-linejoin="round"/>
</g>
</g>
<defs>
<clipPath id="clip0_695_963">
<rect width="66.6667" height="66.6667" fill="white" transform="translate(0.666664 0.666748)"/>
</clipPath>
</defs>
</svg>
