<svg width="20" height="21" viewBox="0 0 20 21" fill="none" xmlns="http://www.w3.org/2000/svg">
<path d="M16.6666 8.83342C16.6666 13.8334 9.99992 18.8334 9.99992 18.8334C9.99992 18.8334 3.33325 13.8334 3.33325 8.83342C3.33325 7.0653 4.03563 5.36961 5.28587 4.11937C6.53612 2.86913 8.23181 2.16675 9.99992 2.16675C11.768 2.16675 13.4637 2.86913 14.714 4.11937C15.9642 5.36961 16.6666 7.0653 16.6666 8.83342Z" stroke="#858582" stroke-width="1.5" stroke-linecap="round" stroke-linejoin="round"/>
<path d="M10 11.3333C11.3807 11.3333 12.5 10.214 12.5 8.83325C12.5 7.45254 11.3807 6.33325 10 6.33325C8.61929 6.33325 7.5 7.45254 7.5 8.83325C7.5 10.214 8.61929 11.3333 10 11.3333Z" stroke="#858582" stroke-width="1.5" stroke-linecap="round" stroke-linejoin="round"/>
</svg>
