<!-- icon666.com - MILLIONS vector ICONS FREE --><svg viewBox="0 -61 512 512" xmlns="http://www.w3.org/2000/svg"><path d="m128.058594 82.515625 21.210937 21.179687c11.261719 11.324219 30.996094 11.414063 42.433594.03125l46.058594-46.039062c36.796875 33 94.273437 37.980469 136.097656 11.804688l80.503906 80.507812h57.636719v-150h-301.414062zm0 0" fill="#000000" style="fill: rgb(255, 255, 255);"></path><path d="m247.402344 367.222656c8.789062 8.785156 23.035156 8.785156 31.820312 0 8.789063-8.789062 8.785156-23.035156 0-31.820312l-47.730468-47.730469 21.214843-21.210937 68.945313 68.941406c8.785156 8.785156 23.03125 8.785156 31.816406 0 8.789062-8.789063 8.789062-23.035156 0-31.820313l-68.941406-68.941406 21.214844-21.214844 68.941406 68.941407c8.785156 8.785156 23.035156 8.785156 31.820312 0 8.785156-8.785157 8.785156-23.03125 0-31.816407l-68.945312-68.945312 21.214844-21.210938 68.945312 68.941407c8.785156 8.785156 23.03125 8.785156 31.816406 0 8.789063-8.785157 8.785156-23.03125 0-31.820313l-91.59375-91.519531c-16.804687 6.738281-35.027344 10.226562-53.730468 10.226562-26.222657 0-51.417969-6.738281-73.230469-19.335937l-28.066407 28.050781c-23.726562 23.601562-62.433593 22.511719-84.914062-.089844l-42.378906-42.316406 82.539062-82.53125h-168.160156v150h30.179688zm0 0" fill="#000000" style="fill: rgb(255, 255, 255);"></path><path d="m38.410156 245.523438 22.433594-22.433594-31.820312-31.820313-22.433594 22.433594c-8.785156 8.785156-8.785156 23.035156 0 31.820313 8.789062 8.785156 23.035156 8.785156 31.820312 0zm0 0" fill="#000000" style="fill: rgb(255, 255, 255);"></path><path d="m112.65625 319.769531c-8.785156 8.789063-8.789062 23.035157 0 31.820313 8.785156 8.789062 23.035156 8.789062 31.820312 0l22.433594-22.433594-31.820312-31.820312zm0 0" fill="#000000" style="fill: rgb(255, 255, 255);"></path><path d="m218.722656 383.410156 1.21875-1.222656-31.820312-31.820312-1.21875 1.222656c-8.785156 8.789062-8.789063 23.03125 0 31.820312 8.785156 8.785156 23.035156 8.785156 31.820312 0zm0 0" fill="#000000" style="fill: rgb(255, 255, 255);"></path><path d="m59.621094 266.738281c-8.78125 8.785157-8.785156 23.03125 0 31.820313 8.789062 8.785156 23.035156 8.785156 31.820312 0l22.4375-22.433594-31.820312-31.820312zm0 0" fill="#000000" style="fill: rgb(255, 255, 255);"></path></svg>